<?xml version="1.0" encoding="UTF-8"?>
<svg id="Layer_2" data-name="Layer 2" xmlns="http://www.w3.org/2000/svg" xmlns:xlink="http://www.w3.org/1999/xlink" viewBox="0 0 407.29 431.48">
  <defs>
    <style>
      .cls-1 {
        fill: url(#linear-gradient);
      }
    </style>
    <linearGradient id="linear-gradient" x1="201.11" y1="539.28" x2="203.76" y2="141.3" gradientTransform="translate(0 551.25) scale(1 -1)" gradientUnits="userSpaceOnUse">
      <stop offset=".09" stop-color="#2e2aff"/>
      <stop offset="1" stop-color="#7feeff"/>
    </linearGradient>
  </defs>
  <g id="Layer_2-2" data-name="Layer 2">
    <g id="Layer_1-2" data-name="Layer 1-2">
      <path class="cls-1" d="m165.82,23.4l-34.41,75.06-1.6,3.49c-16.53,20.52,6.47,43.52,26.47,50.52-15-5-36-19-48.61-2.02-.81,1.76-1.65,3.41-2.26,4.75C59.28,255.83,3.57,377.35,3.57,377.35c-17.15,37.41,31.24,71,64.58,44.82l109.66-86.08c15.4-12.09,37.87-12.06,53.24.06l108.01,85.19c33.32,26.28,81.82-7.31,64.65-44.77,0,0-28.63-62.46-61.81-134.84l-1.64-3.57c-12.98-27.69-45.98-.69-64.98,7.31,17-14,59-26,43.45-54.27-.43-1.05-1.23-2.68-1.79-3.89-15.59-34.01-30.89-67.39-43.57-95.05-1.24-2.7-2.45-5.35-3.07-7.12-1.76-3.41-2.92-5.94-3.9-8.19-1.29-2.69-2.39-5.09-3.92-8.65-.61-1.11-1.65-3.37-2.66-5.56-11.05-24.11-18.03-39.32-18.03-39.32-14.32-31.23-61.67-31.23-75.99,0l.02-.02Z"/>
    </g>
  </g>
</svg>